<svg xmlns="http://www.w3.org/2000/svg" version="1.1" xmlns:xlink="http://www.w3.org/1999/xlink" xmlns:svgjs="http://svgjs.dev/svgjs" width="1500" height="1634" viewBox="0 0 1500 1634"><g transform="matrix(1,0,0,1,-1.4194425042169314,0)"><svg viewBox="0 0 257 280" data-background-color="#ffffff" preserveAspectRatio="xMidYMid meet" height="1634" width="1500" xmlns="http://www.w3.org/2000/svg" xmlns:xlink="http://www.w3.org/1999/xlink"><g id="tight-bounds" transform="matrix(1,0,0,1,0.2431978157225103,0)"><svg viewBox="0 0 256.513604368555 280" height="280" width="256.513604368555"><g><svg viewBox="0 0 278.2696 303.74797544091336" height="280" width="256.513604368555"><g><svg viewBox="0 0 278.2696 303.74797544091336" height="303.74797544091336" width="278.2696"><g id="textblocktransform"><svg viewBox="0 0 278.2696 303.74797544091336" height="303.74797544091336" width="278.2696" id="textblock"><g><svg viewBox="0 0 278.2696 278.2696" height="278.2696" width="278.2696"><g transform="matrix(1,0,0,1,96.27273064343788,49.27818000448224)"><svg viewBox="0 0 85.72413871312428 179.71323999103555" height="179.71323999103555" width="85.72413871312428"><g id="icon-0"><svg xmlns="http://www.w3.org/2000/svg" xmlns:xlink="http://www.w3.org/1999/xlink" version="1.1" x="0" y="0" viewBox="30.521000000000008 9.396 38.81199999999999 81.366" enable-background="new 0 0 100 100" xml:space="preserve" height="179.71323999103555" width="85.72413871312428" class="icon-xg-0" data-fill-palette-color="accent" id="xg-0"><path d="M46.266 54.172L42.757 52.1v2.479 1.596c0 4.698-1.768 9.277-3.329 13.318-1.347 3.485-2.506 6.488-2.506 9.248 0 6.628 5.393 12.021 12.023 12.021 6.629 0 12.022-5.393 12.022-12.021C60.967 72.764 53.846 58.648 46.266 54.172zM49.587 87.791c-5.354 0-9.694-4.339-9.694-9.694 0-2.474 1.245-5.544 2.584-9.021-0.754 2.56-1.297 4.874-1.297 6.867 0 6.305 4.033 11.446 9.117 11.814C50.061 87.773 49.827 87.791 49.587 87.791z" fill="#d90000" data-fill-palette-color="accent"></path><path d="M57.818 29.666l-2.748-1.623v1.942 1.25c0 3.68-1.385 7.266-2.608 10.433-1.055 2.73-1.963 5.082-1.963 7.244 0 5.192 4.225 9.417 9.417 9.417 5.193 0 9.417-4.225 9.417-9.417C69.333 44.23 63.756 33.173 57.818 29.666zM60.419 56.001c-4.194 0-7.594-3.399-7.594-7.593 0-1.938 0.976-4.343 2.024-7.067-0.591 2.005-1.016 3.818-1.016 5.379 0 4.939 3.159 8.966 7.141 9.254C60.791 55.987 60.607 56.001 60.419 56.001z" fill="#d90000" data-fill-palette-color="accent"></path><path d="M37.84 11.019l-2.748-1.623v1.942 1.25c0 3.68-1.385 7.266-2.608 10.433-1.055 2.73-1.963 5.082-1.963 7.244 0 5.192 4.225 9.417 9.417 9.417 5.193 0 9.417-4.225 9.417-9.417C49.355 25.582 43.777 14.525 37.84 11.019zM40.441 37.353c-4.194 0-7.594-3.399-7.594-7.593 0-1.938 0.976-4.343 2.024-7.067-0.591 2.005-1.016 3.818-1.016 5.379 0 4.939 3.159 8.966 7.141 9.254C40.813 37.339 40.629 37.353 40.441 37.353z" fill="#d90000" data-fill-palette-color="accent"></path></svg></g></svg></g><g id="text-0"></g><g id="text-1"></g></svg></g><g transform="matrix(1,0,0,1,0,289.78706546610977)"><svg viewBox="0 0 278.2696 13.96090997480362" height="13.96090997480362" width="278.2696"><g transform="matrix(1,0,0,1,0,0)"><svg width="278.2696" viewBox="4.58 -33.77 682.14 34.230000000000004" height="13.96090997480362" data-palette-color="#0063db"><path d="M26.82-28.97Q31.12-24.67 31.12-16.68 31.12-8.7 26.66-4.35 22.19 0 13.78 0L13.78 0 4.58 0 4.58-33.27 14.76-33.27Q22.52-33.27 26.82-28.97ZM8.44-3.34L13.14-3.34Q20.05-3.34 23.53-6.74 27.02-10.14 27.02-16.72 27.02-23.31 23.76-26.61 20.5-29.9 14.05-29.9L14.05-29.9 8.44-29.9 8.44-3.34ZM40.8-4.02Q36.8-8.54 36.8-16.7 36.8-24.85 40.81-29.31 44.82-33.77 52.08-33.77 59.35-33.77 63.38-29.23 67.41-24.7 67.41-16.7 67.41-8.7 63.37-4.12 59.33 0.46 52.06 0.46 44.79 0.46 40.8-4.02L40.8-4.02ZM60.51-26.87Q57.71-30.33 52.18-30.33 46.66-30.33 43.78-26.85 40.9-23.36 40.9-16.65 40.9-9.93 43.78-6.43 46.66-2.93 52.17-2.93 57.68-2.93 60.5-6.41 63.32-9.88 63.32-16.65 63.32-23.41 60.51-26.87ZM97.19-14.18L97.19-33.27 100.8-33.27 100.8 0 96.38 0 78.21-27.91 78.03-27.91Q78.38-22.83 78.38-18.91L78.38-18.91 78.38 0 74.82 0 74.82-33.27 79.19-33.27 97.32-5.46 97.49-5.46Q97.11-12.01 97.19-14.18L97.19-14.18ZM118.67-24.37L114.75-14.05 125.5-14.05 121.63-24.37Q120.85-26.49 120.09-29.17L120.09-29.17Q119.63-27.1 118.67-24.37L118.67-24.37ZM121.78-33.39L134.85 0 130.86 0 126.71-10.57 113.39-10.57 109.29 0 105.38 0 118.52-33.39 121.78-33.39ZM156.94-29.83L146.4-29.83 146.4 0 142.53 0 142.53-29.83 131.99-29.83 131.99-33.27 156.94-33.27 156.94-29.83ZM165.81-3.46L180.47-3.46 180.47 0 161.94 0 161.94-33.27 180.47-33.27 180.47-29.83 165.81-29.83 165.81-19.11 179.59-19.11 179.59-15.7 165.81-15.7 165.81-3.46ZM212.9 0L201.3 0 201.3-33.27 210.7-33.27Q217.32-33.27 220.27-31.28 223.21-29.3 223.21-25.03L223.21-25.03Q223.21-22.04 221.56-20.13 219.9-18.23 216.77-17.64L216.77-17.64 216.77-17.42Q224.35-16.13 224.35-9.45L224.35-9.45Q224.35-5.01 221.33-2.5 218.31 0 212.9 0L212.9 0ZM210.85-29.9L205.16-29.9 205.16-19.01 211.53-19.01Q215.63-19.01 217.42-20.3 219.22-21.59 219.22-24.51 219.22-27.43 217.23-28.67 215.25-29.9 210.85-29.9L210.85-29.9ZM205.16-3.29L212.09-3.29Q220.2-3.29 220.2-9.63L220.2-9.63Q220.2-12.82 218.13-14.28 216.06-15.75 211.79-15.75L211.79-15.75 205.16-15.75 205.16-3.29ZM250.01-3.51L250.01 0 231.48 0 231.48-33.27 235.34-33.27 235.34-3.51 250.01-3.51ZM256.98-4.02Q252.99-8.54 252.99-16.7 252.99-24.85 256.99-29.31 261-33.77 268.27-33.77 275.53-33.77 279.57-29.23 283.6-24.7 283.6-16.7 283.6-8.7 279.55-4.12 275.51 0.46 268.24 0.46 260.97 0.46 256.98-4.02L256.98-4.02ZM276.7-26.87Q273.89-30.33 268.37-30.33 262.84-30.33 259.96-26.85 257.08-23.36 257.08-16.65 257.08-9.93 259.96-6.43 262.84-2.93 268.35-2.93 273.87-2.93 276.68-6.41 279.5-9.88 279.5-16.65 279.5-23.41 276.7-26.87ZM293.25-4.02Q289.26-8.54 289.26-16.7 289.26-24.85 293.26-29.31 297.27-33.77 304.54-33.77 311.81-33.77 315.84-29.23 319.87-24.7 319.87-16.7 319.87-8.7 315.82-4.12 311.78 0.46 304.51 0.46 297.24 0.46 293.25-4.02L293.25-4.02ZM312.97-26.87Q310.16-30.33 304.64-30.33 299.12-30.33 296.23-26.85 293.35-23.36 293.35-16.65 293.35-9.93 296.23-6.43 299.12-2.93 304.63-2.93 310.14-2.93 312.96-6.41 315.77-9.88 315.77-16.65 315.77-23.41 312.97-26.87ZM349.52-28.97Q353.81-24.67 353.81-16.68 353.81-8.7 349.35-4.35 344.89 0 336.47 0L336.47 0 327.27 0 327.27-33.27 337.46-33.27Q345.22-33.27 349.52-28.97ZM331.14-3.34L335.84-3.34Q342.74-3.34 346.23-6.74 349.72-10.14 349.72-16.72 349.72-23.31 346.46-26.61 343.2-29.9 336.75-29.9L336.75-29.9 331.14-29.9 331.14-3.34ZM383.41-24.37L379.49-14.05 390.24-14.05 386.37-24.37Q385.58-26.49 384.83-29.17L384.83-29.17Q384.37-27.1 383.41-24.37L383.41-24.37ZM386.52-33.39L399.59 0 395.59 0 391.45-10.57 378.13-10.57 374.03 0 370.11 0 383.26-33.39 386.52-33.39ZM426.53-14.18L426.53-33.27 430.15-33.27 430.15 0 425.72 0 407.55-27.91 407.37-27.91Q407.73-22.83 407.73-18.91L407.73-18.91 407.73 0 404.16 0 404.16-33.27 408.53-33.27 426.66-5.46 426.84-5.46Q426.46-12.01 426.53-14.18L426.53-14.18ZM461.54-28.97Q465.84-24.67 465.84-16.68 465.84-8.7 461.38-4.35 456.91 0 448.5 0L448.5 0 439.3 0 439.3-33.27 449.48-33.27Q457.24-33.27 461.54-28.97ZM443.16-3.34L447.86-3.34Q454.77-3.34 458.25-6.74 461.74-10.14 461.74-16.72 461.74-23.31 458.48-26.61 455.22-29.9 448.77-29.9L448.77-29.9 443.16-29.9 443.16-3.34ZM505.47-8.85L505.47-8.85Q505.47-4.45 502.3-2 499.12 0.46 493.42 0.46 487.72 0.46 484.54-1.06L484.54-1.06 484.54-4.8Q489.04-2.93 493.79-2.93L493.79-2.93Q497.61-2.93 499.59-4.37 501.58-5.81 501.58-8.49L501.58-8.49Q501.58-10.21 500.88-11.3 500.19-12.39 498.54-13.35 496.9-14.31 493.61-15.47L493.61-15.47Q488.99-17.11 486.98-19.39 484.97-21.66 484.97-25.43 484.97-29.2 487.85-31.47L487.85-31.47Q490.78-33.75 495.62-33.75 500.46-33.75 504.63-31.93L504.63-31.93 503.42-28.54Q499.3-30.28 495.43-30.28L495.43-30.28Q492.35-30.28 490.62-28.96 488.89-27.63 488.89-25.3L488.89-25.3Q488.89-23.53 489.51-22.47 490.12-21.41 491.67-20.42L491.67-20.42Q493.26-19.46 496.32-18.4L496.32-18.4Q501.58-16.53 503.5-14.38L503.5-14.38Q505.47-12.26 505.47-8.85ZM521.01-24.37L517.09-14.05 527.84-14.05 523.97-24.37Q523.19-26.49 522.43-29.17L522.43-29.17Q521.97-27.1 521.01-24.37L521.01-24.37ZM524.12-33.39L537.19 0 533.2 0 529.05-10.57 515.73-10.57 511.63 0 507.72 0 520.86-33.39 524.12-33.39ZM551.29-11.88L551.29-11.88 558.88-33.27 563.05-33.27 551.06 0 547.25 0 535.32-33.27 539.41-33.27 547.05-11.73Q548.41-7.96 549.14-4.52L549.14-4.52Q550-8.29 551.29-11.88ZM571.49-3.46L586.15-3.46 586.15 0 567.62 0 567.62-33.27 586.15-33.27 586.15-29.83 571.49-29.83 571.49-19.11 585.26-19.11 585.26-15.7 571.49-15.7 571.49-3.46ZM625.5-3.51L625.5 0 606.97 0 606.97-33.27 610.84-33.27 610.84-3.51 625.5-3.51ZM635.03-33.27L635.03 0 631.16 0 631.16-33.27 635.03-33.27ZM661.8-14.21L648.02-14.21 648.02 0 644.15 0 644.15-33.27 662.68-33.27 662.68-29.83 648.02-29.83 648.02-17.64 661.8-17.64 661.8-14.21ZM672.06-3.46L686.72-3.46 686.72 0 668.19 0 668.19-33.27 686.72-33.27 686.72-29.83 672.06-29.83 672.06-19.11 685.83-19.11 685.83-15.7 672.06-15.7 672.06-3.46Z" opacity="1" transform="matrix(1,0,0,1,0,0)" fill="#0063db" class="slogan-text-1" data-fill-palette-color="secondary" id="text-1"></path></svg></g></svg></g></svg></g></svg></g></svg></g><defs></defs><mask id="474713aa-f78e-4139-b0a8-06f169ade0c4"><g id="SvgjsG1102"><svg viewBox="0 0 256.513604368555 280" height="280" width="256.513604368555"><g><svg viewBox="0 0 278.2696 303.74797544091336" height="280" width="256.513604368555"><g><svg viewBox="0 0 278.2696 303.74797544091336" height="303.74797544091336" width="278.2696"><g id="SvgjsG1101"><svg viewBox="0 0 278.2696 303.74797544091336" height="303.74797544091336" width="278.2696" id="SvgjsSvg1100"><g><svg viewBox="0 0 278.2696 278.2696" height="278.2696" width="278.2696"><g transform="matrix(1,0,0,1,96.27273064343788,49.27818000448224)"><svg viewBox="0 0 85.72413871312428 179.71323999103555" height="179.71323999103555" width="85.72413871312428"><g id="SvgjsG1099"><svg xmlns="http://www.w3.org/2000/svg" xmlns:xlink="http://www.w3.org/1999/xlink" version="1.1" x="0" y="0" viewBox="30.521000000000008 9.396 38.81199999999999 81.366" enable-background="new 0 0 100 100" xml:space="preserve" height="179.71323999103555" width="85.72413871312428" class="icon-xg-0" data-fill-palette-color="accent" id="SvgjsSvg1098"><path d="M46.266 54.172L42.757 52.1v2.479 1.596c0 4.698-1.768 9.277-3.329 13.318-1.347 3.485-2.506 6.488-2.506 9.248 0 6.628 5.393 12.021 12.023 12.021 6.629 0 12.022-5.393 12.022-12.021C60.967 72.764 53.846 58.648 46.266 54.172zM49.587 87.791c-5.354 0-9.694-4.339-9.694-9.694 0-2.474 1.245-5.544 2.584-9.021-0.754 2.56-1.297 4.874-1.297 6.867 0 6.305 4.033 11.446 9.117 11.814C50.061 87.773 49.827 87.791 49.587 87.791z" fill="black"></path><path d="M57.818 29.666l-2.748-1.623v1.942 1.25c0 3.68-1.385 7.266-2.608 10.433-1.055 2.73-1.963 5.082-1.963 7.244 0 5.192 4.225 9.417 9.417 9.417 5.193 0 9.417-4.225 9.417-9.417C69.333 44.23 63.756 33.173 57.818 29.666zM60.419 56.001c-4.194 0-7.594-3.399-7.594-7.593 0-1.938 0.976-4.343 2.024-7.067-0.591 2.005-1.016 3.818-1.016 5.379 0 4.939 3.159 8.966 7.141 9.254C60.791 55.987 60.607 56.001 60.419 56.001z" fill="black"></path><path d="M37.84 11.019l-2.748-1.623v1.942 1.25c0 3.68-1.385 7.266-2.608 10.433-1.055 2.73-1.963 5.082-1.963 7.244 0 5.192 4.225 9.417 9.417 9.417 5.193 0 9.417-4.225 9.417-9.417C49.355 25.582 43.777 14.525 37.84 11.019zM40.441 37.353c-4.194 0-7.594-3.399-7.594-7.593 0-1.938 0.976-4.343 2.024-7.067-0.591 2.005-1.016 3.818-1.016 5.379 0 4.939 3.159 8.966 7.141 9.254C40.813 37.339 40.629 37.353 40.441 37.353z" fill="black"></path></svg></g></svg></g><g id="SvgjsG1097"><path d="M11.302 102.011v0l11.364 3.885-0.655 1.918-17.88-6.111 1.068-3.126 16.691-0.625 0.034-0.097-12.807-10.74 1.065-3.117 17.88 6.112-0.712 2.084-11.521-3.938c-1.376-0.47-2.79-1.023-4.241-1.656v0l-0.04 0.117 13.738 11.515-0.573 1.675-17.905 0.644-0.033 0.098c1.284 0.316 2.793 0.77 4.527 1.362z" fill="white"></path><path d="M21.465 73.763l3.957 4.86 3.049-5.287-6.168-1.027c-0.843-0.145-1.776-0.347-2.8-0.604v0c0.598 0.543 1.252 1.229 1.962 2.058zM17.904 69.678l20.138 3.048-1.131 1.961-6.375-0.956-3.779 6.553 4.035 5.012-1.111 1.926-12.702-15.94z" fill="white"></path><path d="M41.715 54.795l-8.559-6.663 1.258-1.617 14.91 11.607-1.542 1.982-18.848-1.59-0.056 0.073c1.601 1.081 2.987 2.077 4.156 2.987v0l8.47 6.594-1.245 1.6-14.911-11.607 1.53-1.965 18.788 1.583 0.063-0.082c-2.048-1.412-3.386-2.38-4.014-2.902z" fill="white"></path><path d="M53.176 51.479c-2.269-0.267-4.43-1.552-6.484-3.857-2.054-2.305-3.077-4.592-3.068-6.861 0.009-2.269 1.04-4.319 3.095-6.149 2.054-1.831 4.223-2.615 6.506-2.352 2.278 0.267 4.426 1.533 6.444 3.796 2.013 2.259 3.026 4.545 3.039 6.859 0.008 2.309-1.015 4.378-3.069 6.209-2.054 1.831-4.208 2.615-6.463 2.355zM52.901 34.341c-1.666-0.271-3.28 0.29-4.842 1.682-1.562 1.392-2.31 2.946-2.244 4.66 0.062 1.709 0.94 3.514 2.634 5.414 1.689 1.895 3.381 2.974 5.077 3.237 1.695 0.263 3.322-0.3 4.879-1.687 1.557-1.388 2.297-2.929 2.219-4.625-0.078-1.686-0.968-3.484-2.671-5.395-1.707-1.916-3.391-3.011-5.052-3.286z" fill="white"></path><path d="M85.514 22.399l-5.074-9.587 1.81-0.958 8.839 16.7-2.219 1.175-16.538-9.18-0.082 0.044c1.017 1.643 1.872 3.12 2.566 4.429v0l5.021 9.487-1.792 0.949-8.839-16.701 2.202-1.165 16.486 9.149 0.091-0.048c-1.289-2.128-2.113-3.559-2.471-4.294z" fill="white"></path><path d="M92.455 7.92l6.734 17.654-2.058 0.785-6.734-17.654z" fill="white"></path><path d="M112.707 4.495l-5.811 1.449 4.097 16.437-2.127 0.531-4.097-16.437-5.812 1.449-0.473-1.898 13.75-3.428z" fill="white"></path><path d="M130.687 0.25l2.188-0.25 2.145 18.773-2.188 0.25-1.008-8.824-9.877 1.129 1.008 8.824-2.188 0.25-2.145-18.773 2.188-0.25 0.913 7.996 9.878-1.129z" fill="white"></path><path d="M143.77 0.033l-0.126 18.895-2.203-0.014 0.127-18.895z" fill="white"></path><path d="M161.27 15.744v0c-0.196 1.656-0.944 2.873-2.245 3.652-1.301 0.779-3.021 1.042-5.161 0.789-2.146-0.254-3.782-0.737-4.907-1.45v0l0.249-2.105c1.607 0.901 3.303 1.458 5.088 1.668v0c1.438 0.17 2.56 0.03 3.366-0.421 0.814-0.457 1.28-1.189 1.399-2.197v0c0.076-0.64 0.005-1.181-0.212-1.621-0.211-0.439-0.605-0.876-1.182-1.311-0.571-0.434-1.45-0.945-2.638-1.535v0c-1.665-0.819-2.825-1.702-3.48-2.649-0.656-0.941-0.9-2.12-0.732-3.538 0.167-1.417 0.844-2.491 2.028-3.221v0c1.204-0.721 2.716-0.974 4.536-0.76 1.819 0.215 3.472 0.756 4.959 1.622v0l-0.911 1.831c-1.469-0.837-2.93-1.341-4.381-1.513v0c-1.165-0.138-2.101 0.004-2.807 0.425-0.713 0.42-1.121 1.07-1.225 1.949v0c-0.078 0.661-0.022 1.206 0.17 1.636 0.184 0.429 0.544 0.862 1.079 1.299v0c0.557 0.432 1.384 0.917 2.482 1.454v0c1.9 0.936 3.163 1.849 3.79 2.738v0c0.641 0.891 0.886 1.977 0.735 3.258z" fill="white"></path><path d="M182.061 6.702l2.131 0.558-4.788 18.279-2.131-0.558 2.251-8.592-9.617-2.519-2.251 8.592-2.13-0.558 4.787-18.279 2.131 0.558-2.039 7.786 9.617 2.519z" fill="white"></path><path d="M205.185 32.347v0c-0.785 1.471-1.925 2.333-3.42 2.585-1.495 0.252-3.193-0.129-5.095-1.143-1.907-1.017-3.255-2.062-4.042-3.136v0l0.997-1.87c1.169 1.424 2.546 2.559 4.133 3.405v0c1.277 0.681 2.374 0.959 3.288 0.832 0.924-0.129 1.625-0.642 2.103-1.537v0c0.303-0.569 0.434-1.098 0.392-1.588-0.036-0.486-0.244-1.036-0.624-1.65-0.374-0.611-1.007-1.408-1.899-2.389v0c-1.253-1.368-2.012-2.613-2.277-3.734-0.268-1.115-0.067-2.302 0.605-3.562 0.672-1.259 1.692-2.014 3.061-2.263v0c1.384-0.234 2.885 0.081 4.501 0.943 1.616 0.862 2.959 1.967 4.029 3.315v0l-1.514 1.374c-1.064-1.314-2.241-2.315-3.531-3.003v0c-1.035-0.552-1.958-0.761-2.769-0.626-0.817 0.132-1.434 0.588-1.85 1.37v0c-0.313 0.587-0.459 1.116-0.437 1.586 0.015 0.467 0.193 1.001 0.533 1.602v0c0.362 0.605 0.956 1.357 1.782 2.257v0c1.429 1.563 2.274 2.873 2.535 3.93v0c0.273 1.063 0.106 2.164-0.501 3.302z" fill="white"></path><path d="M220.537 41.397l7.238-9.956 1.773 1.289-7.195 9.897c-1.267 1.743-2.786 2.729-4.557 2.961-1.777 0.227-3.581-0.325-5.412-1.657-1.837-1.335-2.9-2.872-3.189-4.609v0c-0.274-1.735 0.228-3.482 1.507-5.241v0l7.159-9.848 1.773 1.289-7.256 9.981c-0.932 1.282-1.292 2.518-1.079 3.707 0.207 1.185 0.968 2.256 2.283 3.213 1.315 0.956 2.573 1.344 3.772 1.164 1.194-0.184 2.255-0.914 3.183-2.19z" fill="white"></path><path d="M227.332 56.892l-4.647-4.683 13.413-13.309 3.762 3.792c1.769 1.783 2.777 3.334 3.024 4.654 0.257 1.321-0.189 2.551-1.339 3.692v0c-0.804 0.797-1.683 1.226-2.639 1.285-0.951 0.064-1.923-0.248-2.915-0.935v0l-0.095 0.094c1.679 2.384 1.622 4.465-0.17 6.243v0c-1.198 1.189-2.537 1.71-4.015 1.564-1.479-0.146-2.939-0.945-4.379-2.397zM238.567 44.106l-2.276-2.294-4.391 4.356 2.544 2.565c1.092 1.101 2.05 1.721 2.875 1.859 0.824 0.139 1.628-0.18 2.412-0.958 0.784-0.778 1.081-1.599 0.891-2.464-0.2-0.864-0.885-1.886-2.055-3.064zM225.559 52.46l2.769 2.791c2.165 2.182 4.1 2.427 5.804 0.736v0c0.857-0.851 1.205-1.752 1.044-2.703-0.156-0.947-0.805-1.995-1.945-3.144v0l-2.646-2.667z" fill="white"></path><path d="M248.65 61.123l-6.06 1.599 3.557 4.959 3.481-5.195c0.48-0.708 1.049-1.474 1.706-2.3v0c-0.741 0.321-1.636 0.633-2.684 0.937zM253.841 59.566l-11.088 17.085-1.319-1.84 3.501-5.412-4.409-6.147-6.231 1.608-1.296-1.807 19.762-4.992z" fill="white"></path><path d="M254.076 86.933v0c-1.467 0.792-2.893 0.88-4.278 0.264-1.386-0.616-2.59-1.872-3.614-3.768-1.027-1.902-1.572-3.518-1.636-4.848v0l1.866-1.007c0.187 1.833 0.707 3.54 1.561 5.122v0c0.688 1.274 1.448 2.111 2.28 2.511 0.842 0.403 1.709 0.364 2.603-0.119v0c0.567-0.306 0.969-0.675 1.204-1.106 0.238-0.425 0.369-0.999 0.392-1.721 0.027-0.716-0.061-1.73-0.261-3.04v0c-0.288-1.833-0.233-3.29 0.166-4.37 0.393-1.078 1.217-1.956 2.472-2.634 1.256-0.678 2.523-0.743 3.803-0.194v0c1.283 0.57 2.359 1.662 3.229 3.274 0.87 1.612 1.379 3.275 1.525 4.99v0l-2.021 0.307c-0.161-1.683-0.588-3.168-1.282-4.454v0c-0.557-1.032-1.211-1.716-1.962-2.051-0.754-0.342-1.52-0.302-2.299 0.118v0c-0.586 0.316-0.999 0.676-1.241 1.08-0.245 0.398-0.392 0.941-0.442 1.63v0c-0.033 0.704 0.046 1.659 0.238 2.866v0c0.327 2.093 0.307 3.651-0.06 4.676v0c-0.36 1.037-1.108 1.861-2.243 2.474z" fill="white"></path><path d="M273.432 98.74l0.769 2.063-17.705 6.599-0.77-2.064 8.323-3.101-3.472-9.316-8.322 3.101-0.769-2.064 17.706-6.598 0.769 2.064-7.542 2.81 3.472 9.316z" fill="white"></path><path d="M20.638 177.778v0l-11.365 3.885-0.655-1.919 17.879-6.111 1.069 3.126-12.817 10.711 0.034 0.097 16.701 0.654 1.065 3.116-17.88 6.112-0.712-2.084 11.52-3.938c1.376-0.47 2.832-0.899 4.368-1.286v0l-0.04-0.117-17.912-0.697-0.573-1.675 13.765-11.47-0.034-0.097c-1.209 0.536-2.68 1.101-4.413 1.693z" fill="white"></path><path d="M33.186 202.458l-6.189 0.991 3.049 5.287 3.978-4.825c0.548-0.657 1.19-1.363 1.925-2.12v0c-0.769 0.246-1.69 0.468-2.763 0.667zM38.505 201.422l-12.724 15.904-1.131-1.961 4.02-5.04-3.779-6.552-6.36 0.983-1.11-1.926 20.158-3.013z" fill="white"></path><path d="M43.248 226.993l8.56-6.663 1.258 1.616-14.91 11.607-1.543-1.982 6.166-17.881-0.057-0.073c-1.441 1.287-2.747 2.386-3.916 3.296v0l-8.47 6.594-1.246-1.6 14.911-11.607 1.529 1.965-6.144 17.825 0.063 0.082c1.871-1.639 3.138-2.699 3.799-3.179z" fill="white"></path><path d="M46.8 238.657c0.005-2.284 1.034-4.579 3.088-6.884 2.054-2.305 4.209-3.583 6.464-3.834 2.255-0.251 4.409 0.539 6.463 2.369 2.054 1.831 3.081 3.895 3.083 6.193-0.004 2.294-1.015 4.573-3.033 6.837-2.013 2.259-4.168 3.527-6.466 3.805-2.293 0.273-4.466-0.506-6.52-2.336-2.054-1.831-3.081-3.881-3.079-6.15zM63.793 236.418c0.078-1.686-0.664-3.225-2.226-4.617-1.562-1.392-3.191-1.957-4.886-1.694-1.691 0.258-3.383 1.337-5.077 3.236-1.689 1.895-2.567 3.7-2.634 5.415-0.067 1.714 0.679 3.265 2.236 4.653 1.557 1.388 3.173 1.946 4.849 1.675 1.666-0.271 3.35-1.361 5.053-3.272 1.707-1.916 2.603-3.714 2.685-5.396z" fill="white"></path><path d="M86.423 258.865l5.074-9.588 1.81 0.958-8.839 16.701-2.219-1.175-1.71-18.836-0.082-0.044c-0.787 1.765-1.527 3.302-2.22 4.613v0l-5.021 9.487-1.792-0.948 8.839-16.701 2.201 1.165 1.707 18.777 0.091 0.048c1.034-2.263 1.755-3.748 2.161-4.457z" fill="white"></path><path d="M100.879 252.976l-6.735 17.655-2.057-0.785 6.734-17.655z" fill="white"></path><path d="M117.479 259.345l-5.812-1.449-4.097 16.437-2.127-0.531 4.097-16.436-5.812-1.449 0.473-1.898 13.751 3.428z" fill="white"></path><path d="M133.371 259.246l2.188 0.25-2.145 18.774-2.189-0.25 1.009-8.825-9.878-1.128-1.008 8.824-2.188-0.25 2.145-18.773 2.188 0.25-0.914 7.996 9.878 1.128z" fill="white"></path><path d="M143.612 259.311l0.127 18.895-2.203 0.015-0.126-18.895z" fill="white"></path><path d="M161.752 271.318v0c0.196 1.656-0.248 3.014-1.332 4.074-1.084 1.061-2.695 1.717-4.835 1.97-2.146 0.254-3.849 0.165-5.11-0.266v0l-0.249-2.106c1.773 0.502 3.552 0.648 5.337 0.437v0c1.438-0.17 2.496-0.568 3.175-1.194 0.685-0.634 0.968-1.455 0.849-2.463v0c-0.076-0.64-0.271-1.149-0.584-1.527-0.307-0.378-0.792-0.711-1.455-0.999-0.656-0.289-1.63-0.581-2.922-0.877v0c-1.81-0.408-3.144-0.997-4.002-1.766-0.857-0.762-1.369-1.852-1.537-3.27-0.167-1.417 0.24-2.619 1.222-3.605v0c1.003-0.982 2.414-1.581 4.234-1.796 1.819-0.215 3.553-0.074 5.2 0.422v0l-0.459 1.992c-1.624-0.471-3.162-0.621-4.613-0.45v0c-1.165 0.138-2.042 0.493-2.63 1.068-0.595 0.575-0.841 1.302-0.738 2.18v0c0.078 0.661 0.26 1.178 0.547 1.552 0.279 0.375 0.73 0.712 1.352 1.012v0c0.642 0.29 1.56 0.569 2.752 0.835v0c2.066 0.468 3.507 1.061 4.324 1.779v0c0.831 0.717 1.322 1.716 1.474 2.998z" fill="white"></path><path d="M176.072 253.413l2.13-0.558 4.788 18.278-2.13 0.558-2.251-8.591-9.617 2.519 2.25 8.592-2.13 0.558-4.788-18.279 2.131-0.558 2.039 7.785 9.617-2.519z" fill="white"></path><path d="M207.118 254.26v0c0.785 1.471 0.865 2.898 0.242 4.28-0.624 1.382-1.886 2.58-3.787 3.594-1.907 1.017-3.526 1.554-4.856 1.61v0l-0.998-1.87c1.834-0.177 3.544-0.689 5.13-1.535v0c1.277-0.681 2.118-1.437 2.523-2.267 0.408-0.839 0.373-1.707-0.105-2.603v0c-0.303-0.569-0.67-0.972-1.1-1.21-0.424-0.241-0.997-0.374-1.719-0.401-0.716-0.03-1.73 0.052-3.041 0.245v0c-1.834 0.278-3.291 0.216-4.37-0.188-1.076-0.398-1.949-1.227-2.621-2.487-0.672-1.259-0.73-2.527-0.173-3.803v0c0.577-1.28 1.674-2.351 3.29-3.213 1.616-0.862 3.282-1.362 4.997-1.499v0l0.298 2.023c-1.684 0.152-3.171 0.571-4.461 1.259v0c-1.035 0.552-1.723 1.203-2.062 1.951-0.345 0.752-0.31 1.518 0.107 2.3v0c0.313 0.587 0.671 1.003 1.073 1.247 0.396 0.247 0.939 0.397 1.628 0.45v0c0.704 0.037 1.66-0.038 2.867-0.223v0c2.094-0.316 3.653-0.288 4.676 0.084v0c1.035 0.366 1.856 1.118 2.462 2.256z" fill="white"></path><path d="M221.114 242.377l-7.238-9.956 1.773-1.289 7.195 9.898c1.267 1.743 1.737 3.492 1.411 5.247-0.332 1.76-1.414 3.306-3.246 4.637-1.837 1.335-3.626 1.873-5.368 1.613v0c-1.735-0.274-3.242-1.291-4.52-3.051v0l-7.159-9.847 1.773-1.289 7.256 9.98c0.932 1.282 1.996 2.005 3.193 2.17 1.191 0.169 2.445-0.225 3.76-1.181 1.315-0.956 2.072-2.032 2.271-3.229 0.193-1.192-0.174-2.427-1.101-3.703z" fill="white"></path><path d="M237.379 236.058l-4.647 4.683-13.413-13.309 3.762-3.792c1.769-1.783 3.312-2.803 4.631-3.06 1.319-0.267 2.553 0.17 3.702 1.31v0c0.804 0.797 1.239 1.674 1.306 2.63 0.072 0.951-0.233 1.925-0.913 2.921v0l0.095 0.095c2.371-1.698 4.452-1.657 6.245 0.121v0c1.198 1.189 1.73 2.523 1.594 4.003-0.135 1.48-0.922 2.946-2.362 4.398zM224.505 224.923l-2.276 2.294 4.391 4.356 2.544-2.564c1.092-1.101 1.705-2.064 1.837-2.889 0.133-0.825-0.193-1.627-0.977-2.405-0.784-0.778-1.608-1.068-2.47-0.871-0.863 0.207-1.879 0.9-3.049 2.079zM232.961 237.865l2.769-2.79c2.165-2.182 2.395-4.119 0.691-5.811v0c-0.857-0.851-1.761-1.191-2.711-1.022-0.945 0.164-1.988 0.82-3.129 1.969v0l-2.646 2.667z" fill="white"></path><path d="M237.656 213.971l3.456 5.228 3.558-4.959-6.037-1.632c-0.824-0.228-1.733-0.521-2.725-0.879v0c0.541 0.599 1.124 1.347 1.748 2.242zM234.517 209.553l19.737 5.027-1.32 1.839-6.249-1.582-4.409 6.147 3.52 5.387-1.296 1.806-11.063-17.118z" fill="white"></path><path d="M257.692 198v0c1.467 0.792 2.323 1.937 2.567 3.433 0.244 1.497-0.145 3.193-1.169 5.088-1.027 1.902-2.079 3.244-3.156 4.027v0l-1.866-1.008c1.43-1.161 2.573-2.533 3.427-4.114v0c0.688-1.274 0.971-2.369 0.849-3.284-0.124-0.925-0.633-1.629-1.526-2.111v0c-0.567-0.306-1.096-0.44-1.586-0.4-0.486 0.034-1.037 0.239-1.654 0.615-0.613 0.371-1.413 0.999-2.399 1.886v0c-1.375 1.246-2.623 1.999-3.745 2.258-1.117 0.263-2.303 0.055-3.559-0.623-1.256-0.678-2.005-1.702-2.247-3.073v0c-0.226-1.386 0.096-2.884 0.966-4.496 0.87-1.612 1.982-2.949 3.336-4.012v0l1.366 1.521c-1.32 1.057-2.327 2.229-3.021 3.515v0c-0.557 1.032-0.771 1.954-0.64 2.766 0.128 0.818 0.581 1.437 1.36 1.857v0c0.586 0.316 1.114 0.465 1.584 0.446 0.467-0.013 1.002-0.188 1.605-0.525v0c0.607-0.358 1.362-0.949 2.266-1.77v0c1.571-1.421 2.885-2.259 3.943-2.515v0c1.064-0.267 2.164-0.095 3.299 0.519z" fill="white"></path><path d="M251.283 175.987l0.769-2.064 17.706 6.598-0.769 2.064-8.322-3.101-3.472 9.315 8.322 3.102-0.769 2.064-17.706-6.599 0.77-2.063 7.541 2.81 3.472-9.316z" fill="white"></path><path d="M2.933 141.49c0-4.046 3.28-7.326 7.326-7.326 4.046 0 7.326 3.28 7.326 7.326 0 4.046-3.28 7.326-7.326 7.326-4.046 0-7.326-3.28-7.326-7.326z" fill="white"></path><path d="M260.684 141.49c0-4.046 3.28-7.326 7.326-7.326 4.046 0 7.326 3.28 7.326 7.326 0 4.046-3.28 7.326-7.326 7.326-4.046 0-7.326-3.28-7.326-7.326z" fill="white"></path></g><g id="SvgjsG1096"></g></svg></g><g transform="matrix(1,0,0,1,0,289.78706546610977)"><svg viewBox="0 0 278.2696 13.96090997480362" height="13.96090997480362" width="278.2696"><g transform="matrix(1,0,0,1,0,0)"><svg width="278.2696" viewBox="4.58 -33.77 682.14 34.230000000000004" height="13.96090997480362" data-palette-color="#0063db"><path d="M26.82-28.97Q31.12-24.67 31.12-16.68 31.12-8.7 26.66-4.35 22.19 0 13.78 0L13.78 0 4.58 0 4.58-33.27 14.76-33.27Q22.52-33.27 26.82-28.97ZM8.44-3.34L13.14-3.34Q20.05-3.34 23.53-6.74 27.02-10.14 27.02-16.72 27.02-23.31 23.76-26.61 20.5-29.9 14.05-29.9L14.05-29.9 8.44-29.9 8.44-3.34ZM40.8-4.02Q36.8-8.54 36.8-16.7 36.8-24.85 40.81-29.31 44.82-33.77 52.08-33.77 59.35-33.77 63.38-29.23 67.41-24.7 67.41-16.7 67.41-8.7 63.37-4.12 59.33 0.46 52.06 0.46 44.79 0.46 40.8-4.02L40.8-4.02ZM60.51-26.87Q57.71-30.33 52.18-30.33 46.66-30.33 43.78-26.85 40.9-23.36 40.9-16.65 40.9-9.93 43.78-6.43 46.66-2.93 52.17-2.93 57.68-2.93 60.5-6.41 63.32-9.88 63.32-16.65 63.32-23.41 60.51-26.87ZM97.19-14.18L97.19-33.27 100.8-33.27 100.8 0 96.38 0 78.21-27.91 78.03-27.91Q78.38-22.83 78.38-18.91L78.38-18.91 78.38 0 74.82 0 74.82-33.27 79.19-33.27 97.32-5.46 97.49-5.46Q97.11-12.01 97.19-14.18L97.19-14.18ZM118.67-24.37L114.75-14.05 125.5-14.05 121.63-24.37Q120.85-26.49 120.09-29.17L120.09-29.17Q119.63-27.1 118.67-24.37L118.67-24.37ZM121.78-33.39L134.85 0 130.86 0 126.71-10.57 113.39-10.57 109.29 0 105.38 0 118.52-33.39 121.78-33.39ZM156.94-29.83L146.4-29.83 146.4 0 142.53 0 142.53-29.83 131.99-29.83 131.99-33.27 156.94-33.27 156.94-29.83ZM165.81-3.46L180.47-3.46 180.47 0 161.94 0 161.94-33.27 180.47-33.27 180.47-29.83 165.81-29.83 165.81-19.11 179.59-19.11 179.59-15.7 165.81-15.7 165.81-3.46ZM212.9 0L201.3 0 201.3-33.27 210.7-33.27Q217.32-33.27 220.27-31.28 223.21-29.3 223.21-25.03L223.21-25.03Q223.21-22.04 221.56-20.13 219.9-18.23 216.77-17.64L216.77-17.64 216.77-17.42Q224.35-16.13 224.35-9.45L224.35-9.45Q224.35-5.01 221.33-2.5 218.31 0 212.9 0L212.9 0ZM210.85-29.9L205.16-29.9 205.16-19.01 211.53-19.01Q215.63-19.01 217.42-20.3 219.22-21.59 219.22-24.51 219.22-27.43 217.23-28.67 215.25-29.9 210.85-29.9L210.85-29.9ZM205.16-3.29L212.09-3.29Q220.2-3.29 220.2-9.63L220.2-9.63Q220.2-12.82 218.13-14.28 216.06-15.75 211.79-15.75L211.79-15.75 205.16-15.75 205.16-3.29ZM250.01-3.51L250.01 0 231.48 0 231.48-33.27 235.34-33.27 235.34-3.51 250.01-3.51ZM256.98-4.02Q252.99-8.54 252.99-16.7 252.99-24.85 256.99-29.31 261-33.77 268.27-33.77 275.53-33.77 279.57-29.23 283.6-24.7 283.6-16.7 283.6-8.7 279.55-4.12 275.51 0.46 268.24 0.46 260.97 0.46 256.98-4.02L256.98-4.02ZM276.7-26.87Q273.89-30.33 268.37-30.33 262.84-30.33 259.96-26.85 257.08-23.36 257.08-16.65 257.08-9.93 259.96-6.43 262.84-2.93 268.35-2.93 273.87-2.93 276.68-6.41 279.5-9.88 279.5-16.65 279.5-23.41 276.7-26.87ZM293.25-4.02Q289.26-8.54 289.26-16.7 289.26-24.85 293.26-29.31 297.27-33.77 304.54-33.77 311.81-33.77 315.84-29.23 319.87-24.7 319.87-16.7 319.87-8.7 315.82-4.12 311.78 0.46 304.51 0.46 297.24 0.46 293.25-4.02L293.25-4.02ZM312.97-26.87Q310.16-30.33 304.64-30.33 299.12-30.33 296.23-26.85 293.35-23.36 293.35-16.65 293.35-9.93 296.23-6.43 299.12-2.93 304.63-2.93 310.14-2.93 312.96-6.41 315.77-9.88 315.77-16.65 315.77-23.41 312.97-26.87ZM349.52-28.97Q353.81-24.67 353.81-16.68 353.81-8.7 349.35-4.35 344.89 0 336.47 0L336.47 0 327.27 0 327.27-33.27 337.46-33.27Q345.22-33.27 349.52-28.97ZM331.14-3.34L335.84-3.34Q342.74-3.34 346.23-6.74 349.72-10.14 349.72-16.72 349.72-23.31 346.46-26.61 343.2-29.9 336.75-29.9L336.75-29.9 331.14-29.9 331.14-3.34ZM383.41-24.37L379.49-14.05 390.24-14.05 386.37-24.37Q385.58-26.49 384.83-29.17L384.83-29.17Q384.37-27.1 383.41-24.37L383.41-24.37ZM386.52-33.39L399.59 0 395.59 0 391.45-10.57 378.13-10.57 374.03 0 370.11 0 383.26-33.39 386.52-33.39ZM426.53-14.18L426.53-33.27 430.15-33.27 430.15 0 425.72 0 407.55-27.91 407.37-27.91Q407.73-22.83 407.73-18.91L407.73-18.91 407.73 0 404.16 0 404.16-33.27 408.53-33.27 426.66-5.46 426.84-5.46Q426.46-12.01 426.53-14.18L426.53-14.18ZM461.54-28.97Q465.84-24.67 465.84-16.68 465.84-8.7 461.38-4.35 456.91 0 448.5 0L448.5 0 439.3 0 439.3-33.27 449.48-33.27Q457.24-33.27 461.54-28.97ZM443.16-3.34L447.86-3.34Q454.77-3.34 458.25-6.74 461.74-10.14 461.74-16.72 461.74-23.31 458.48-26.61 455.22-29.9 448.77-29.9L448.77-29.9 443.16-29.9 443.16-3.34ZM505.47-8.85L505.47-8.85Q505.47-4.45 502.3-2 499.12 0.46 493.42 0.46 487.72 0.46 484.54-1.06L484.54-1.06 484.54-4.8Q489.04-2.93 493.79-2.93L493.79-2.93Q497.61-2.93 499.59-4.37 501.58-5.81 501.58-8.49L501.58-8.49Q501.58-10.21 500.88-11.3 500.19-12.39 498.54-13.35 496.9-14.31 493.61-15.47L493.61-15.47Q488.99-17.11 486.98-19.39 484.97-21.66 484.97-25.43 484.97-29.2 487.85-31.47L487.85-31.47Q490.78-33.75 495.62-33.75 500.46-33.75 504.63-31.93L504.63-31.93 503.42-28.54Q499.3-30.28 495.43-30.28L495.43-30.28Q492.35-30.28 490.62-28.96 488.89-27.63 488.89-25.3L488.89-25.3Q488.89-23.53 489.51-22.47 490.12-21.41 491.67-20.42L491.67-20.42Q493.26-19.46 496.32-18.4L496.32-18.4Q501.58-16.53 503.5-14.38L503.5-14.38Q505.47-12.26 505.47-8.85ZM521.01-24.37L517.09-14.05 527.84-14.05 523.97-24.37Q523.19-26.49 522.43-29.17L522.43-29.17Q521.97-27.1 521.01-24.37L521.01-24.37ZM524.12-33.39L537.19 0 533.2 0 529.05-10.57 515.73-10.57 511.63 0 507.72 0 520.86-33.39 524.12-33.39ZM551.29-11.88L551.29-11.88 558.88-33.27 563.05-33.27 551.06 0 547.25 0 535.32-33.27 539.41-33.27 547.05-11.73Q548.41-7.96 549.14-4.52L549.14-4.52Q550-8.29 551.29-11.88ZM571.49-3.46L586.15-3.46 586.15 0 567.62 0 567.62-33.27 586.15-33.27 586.15-29.83 571.49-29.83 571.49-19.11 585.26-19.11 585.26-15.7 571.49-15.7 571.49-3.46ZM625.5-3.51L625.5 0 606.97 0 606.97-33.27 610.84-33.27 610.84-3.51 625.5-3.51ZM635.03-33.27L635.03 0 631.16 0 631.16-33.27 635.03-33.27ZM661.8-14.21L648.02-14.21 648.02 0 644.15 0 644.15-33.27 662.68-33.27 662.68-29.83 648.02-29.83 648.02-17.64 661.8-17.64 661.8-14.21ZM672.06-3.46L686.72-3.46 686.72 0 668.19 0 668.19-33.27 686.72-33.27 686.72-29.83 672.06-29.83 672.06-19.11 685.83-19.11 685.83-15.7 672.06-15.7 672.06-3.46Z" opacity="1" transform="matrix(1,0,0,1,0,0)" fill="black" class="slogan-text-1" id="SvgjsPath1095"></path></svg></g></svg></g></svg></g></svg></g></svg></g><defs><mask></mask></defs></svg><rect width="256.513604368555" height="280" fill="black" stroke="none" visibility="hidden"></rect></g></mask><linearGradient x1="0" x2="1" y1="0.548" y2="0.55" id="3f48f5c7-7416-4b3f-9f9d-00504f05a2b3"><stop stop-color="#ff6cab" offset="0"></stop><stop stop-color="#7366ff" offset="1"></stop></linearGradient><rect width="256.513604368555" height="280" fill="url(#3f48f5c7-7416-4b3f-9f9d-00504f05a2b3)" mask="url(#474713aa-f78e-4139-b0a8-06f169ade0c4)" data-fill-palette-color="primary"></rect></svg><rect width="256.513604368555" height="280" fill="none" stroke="none" visibility="hidden"></rect></g></svg></g></svg>